#define chip09_width 64
#define chip09_height 32
static unsigned char chip09_bits[] = {
   0x00, 0x00, 0x00, 0x00, 0x00, 0x00, 0x00, 0x00, 0xe0, 0x23, 0x40, 0xf2,
   0x03, 0xc0, 0x03, 0x0f, 0x10, 0x26, 0x40, 0x12, 0x04, 0x20, 0x84, 0x10,
   0x08, 0x20, 0x40, 0x10, 0x08, 0x20, 0x44, 0x10, 0x04, 0x20, 0x40, 0x12,
   0x08, 0x10, 0x48, 0x20, 0x04, 0x20, 0x40, 0x12, 0x08, 0x10, 0x48, 0x20,
   0x04, 0xe0, 0x7f, 0x12, 0x04, 0x10, 0x48, 0x20, 0x04, 0x20, 0x40, 0xf2,
   0x03, 0x10, 0x88, 0x30, 0x04, 0x20, 0x40, 0x12, 0xc0, 0x13, 0x08, 0x2f,
   0x04, 0x20, 0x40, 0x12, 0x00, 0x10, 0x08, 0x20, 0x08, 0x20, 0x40, 0x12,
   0x00, 0x20, 0x04, 0x10, 0x10, 0x26, 0x40, 0x12, 0x00, 0x20, 0x84, 0x18,
   0xe0, 0x23, 0x40, 0x12, 0x00, 0xc0, 0x03, 0x07, 0x00, 0x00, 0x00, 0x00,
   0x00, 0x00, 0x00, 0x00, 0x00, 0x00, 0x00, 0x00, 0x00, 0x00, 0x00, 0x00,
   0x00, 0x00, 0x00, 0x00, 0x00, 0x00, 0x00, 0x00, 0x00, 0x00, 0x00, 0x00,
   0x00, 0x00, 0x00, 0x00, 0x00, 0x00, 0x00, 0x00, 0x00, 0x00, 0x00, 0x00,
   0x00, 0x00, 0x00, 0x00, 0x00, 0x00, 0x00, 0x00, 0x00, 0x00, 0x00, 0x00,
   0x00, 0x00, 0x00, 0x00, 0x00, 0x00, 0x00, 0x00, 0x00, 0x00, 0x00, 0x00,
   0x00, 0x00, 0x00, 0x00, 0x00, 0x00, 0x00, 0x00, 0x00, 0x00, 0x00, 0x00,
   0x00, 0x00, 0x00, 0x00, 0x00, 0x00, 0x00, 0x00, 0x00, 0x00, 0x00, 0x00,
   0x00, 0x00, 0x00, 0x00, 0x00, 0x00, 0x00, 0x00, 0x00, 0x00, 0x00, 0x00,
   0x00, 0x00, 0x00, 0x00, 0x00, 0x00, 0x00, 0x00, 0x00, 0x00, 0x00, 0x00,
   0x00, 0x00, 0x00, 0x00, 0x00, 0x00, 0x00, 0x00, 0x00, 0x00, 0x00, 0x00,
   0x00, 0x00, 0x00, 0x00, 0x00, 0x00, 0x00, 0x00, 0x00, 0x00, 0x00, 0x00,
   0x00, 0x00, 0x00, 0x00, 0x00, 0x00, 0x00, 0x00, 0x00, 0x00, 0x00, 0x00,
   0x00, 0x00, 0x00, 0x00 };
